ffmpeg version 2.6.8 Copyright (c) 2000-2016 the FFmpeg developers
  built with gcc 4.9.2 (Debian 4.9.2-10)
  configuration: --prefix=/usr --extra-cflags='-g -O2 -fstack-protector-strong -Wformat -Werror=format-security ' --extra-ldflags='-Wl,-z,relro' --cc='ccache cc' --enable-shared --enable-libmp3lame --enable-gpl --enable-nonfree --enable-libvorbis --enable-pthreads --enable-libfaac --enable-libxvid --enable-postproc --enable-x11grab --enable-libgsm --enable-libtheora --enable-libopencore-amrnb --enable-libopencore-amrwb --enable-libx264 --enable-libspeex --enable-nonfree --disable-stripping --enable-libvpx --enable-libschroedinger --disable-encoder=libschroedinger --enable-version3 --enable-libopenjpeg --enable-librtmp --enable-avfilter --enable-libfreetype --enable-libvo-aacenc --disable-decoder=amrnb --enable-libvo-amrwbenc --enable-libaacplus --libdir=/usr/lib/x86_64-linux-gnu --disable-vda --enable-libbluray --enable-libcdio --enable-gnutls --enable-frei0r --enable-openssl --enable-libass --enable-libopus --enable-fontconfig --enable-libpulse --disable-mips32r2 --disable-mipsdspr1 --disable-mipsdspr2 --enable-libvidstab --enable-libzvbi --enable-avresample --disable-htmlpages --disable-podpages --enable-libutvideo --enable-libfdk-aac --enable-libx265 --enable-libiec61883 --enable-vaapi --enable-libdc1394 --disable-altivec --shlibdir=/usr/lib/x86_64-linux-gnu
  libavutil      54. 20.100 / 54. 20.100
  libavcodec     56. 26.100 / 56. 26.100
  libavformat    56. 25.101 / 56. 25.101
  libavdevice    56.  4.100 / 56.  4.100
  libavfilter     5. 11.102 /  5. 11.102
  libavresample   2.  1.  0 /  2.  1.  0
  libswscale      3.  1.101 /  3.  1.101
  libswresample   1.  1.100 /  1.  1.100
  libpostproc    53.  3.100 / 53.  3.100
Input #0, gif, from 'tmp/MvZeZfqDr1.gif':
  Duration: N/A, bitrate: N/A
    Stream #0:0: Video: gif, bgra, 614x331, 10 fps, 10 tbr, 100 tbn, 100 tbc
[libvpx @ 0x113c920] v1.3.0
Output #0, webm, to 'tmp/xFYFJfDnKP.webm':
  Metadata:
    encoder         : Lavf56.25.101
    Stream #0:0: Video: vp8 (libvpx), yuva420p, 614x331, q=-1--1, 200 kb/s, 10 fps, 1k tbn, 10 tbc
    Metadata:
      encoder         : Lavc56.26.100 libvpx
Stream mapping:
  Stream #0:0 -> #0:0 (gif (native) -> vp8 (libvpx))
Press [q] to stop, [?] for help
frame=    9 fps=0.0 q=0.0 size=      42kB time=00:00:00.90 bitrate= 378.0kbits/s    frame=   12 fps=0.0 q=0.0 Lsize=      43kB time=00:00:01.20 bitrate= 296.9kbits/s    
video:43kB audio:0kB subtitle:0kB other streams:0kB global headers:0kB muxing overhead: 1.619895%
